# xmcd
#
# Track frame offsets: 
#        233
#        17843
#        30683
#        42480
#        53550
#        73168
#        84325
#        101160
#        111565
#        123188
#        141053
#        152980
#        165955
#        177160
#        193835
#        209258
#        221203
#        247795
#        259963
#        284570
#        298620
#        315480
#
# Disc length: 4412 seconds
#
# Revision: 2
# Processed by: cddbd v1.5.2PL0 Copyright (c) Steve Scherf et al.
# Submitted via: ExactAudioCopy v0.95b4
#
DISCID=4c113916
DTITLE=Mahalia Jackson - The Queen Of Gospel
DYEAR=1900
DGENRE=Gospel
TTITLE0=When The Saints Go Marching In
TTITLE1=Oh Lord Is It I?
TTITLE2=I'm Going To Live The Life I Sing About In My Song
TTITLE3=Jesus Met The Woman At The Well
TTITLE4=When I Wake Up In Glory
TTITLE5=Keep Your Hand On The Plow
TTITLE6=Out Of The Depths
TTITLE7=Jesus
TTITLE8=Didn't It Rain
TTITLE9=A City Called Heaven
TTITLE10=Walk Over God's Heaven
TTITLE11=An Evening Prayer
TTITLE12=Joshua Fit The Battle Of Jericho
TTITLE13=The Lord's Prayer
TTITLE14=I'm On My Way
TTITLE15=Nobody Knows The Trouble I've Seen
TTITLE16=In The Upper Room (Pt. 1-2)
TTITLE17=He's Got The Whole World In His Hands
TTITLE18=I Will Move On Up A Little Higher
TTITLE19=Go Tell It On The Mountains
TTITLE20=My God Is Real (Yes, God Is Real)
TTITLE21=It Don't Cost Very Much
EXTD=
EXTT0=
EXTT1=
EXTT2=
EXTT3=
EXTT4=
EXTT5=
EXTT6=
EXTT7=
EXTT8=
EXTT9=
EXTT10=
EXTT11=
EXTT12=
EXTT13=
EXTT14=
EXTT15=
EXTT16=
EXTT17=
EXTT18=
EXTT19=
EXTT20=
EXTT21=
PLAYORDER=
